<svg id="svg" version="1.1" xmlns="http://www.w3.org/2000/svg" xmlns:xlink="http://www.w3.org/1999/xlink" width="360" height="66.63931062782109" viewBox="0, 0, 400,66.63931062782109">
  <g id="svgg">
    <path id="path0" d="M0.000 30.083 L 0.000 60.167 30.083 60.167 L 60.167 60.167 60.167 54.424 L 60.167 48.682 59.625 48.595 C 59.327 48.547,58.708 48.474,58.250 48.433 C 49.440 47.639,40.850 41.282,34.675 30.987 C 33.470 28.977,31.464 24.830,31.256 23.917 C 31.235 23.825,31.125 23.525,31.011 23.250 C 28.549 17.303,26.699 7.556,26.668 0.375 L 26.667 0.000 13.333 0.000 L 0.000 0.000 0.000 30.083 " stroke="none" fill="#6cb34c" fill-rule="evenodd"></path>
    <path id="path1" d="M30.002 2.042 C 30.009 11.741,33.510 22.357,38.957 29.198 C 44.371 35.997,50.499 39.349,58.875 40.091 L 60.167 40.206 60.167 20.103 L 60.167 0.000 45.083 0.000 L 30.000 0.000 30.002 2.042 " stroke="none" fill="#048cd4" fill-rule="evenodd"></path>
    <path id="path2" d="M114.208 0.861 L 113.500 1.020 113.500 13.760 L 113.500 26.500 114.915 26.500 L 116.329 26.500 116.373 20.299 L 116.417 14.099 117.500 13.215 C 119.966 11.203,121.983 10.832,123.501 12.110 C 124.421 12.884,124.500 13.536,124.500 20.364 L 124.500 26.500 125.840 26.500 L 127.180 26.500 127.132 19.375 L 127.083 12.250 126.682 11.441 C 125.273 8.602,120.416 8.264,117.053 10.771 C 116.761 10.989,116.480 11.167,116.428 11.167 C 116.376 11.167,116.333 8.804,116.333 5.917 L 116.333 0.667 115.625 0.685 C 115.235 0.694,114.598 0.774,114.208 0.861 M343.917 0.749 C 343.825 0.779,343.544 0.850,343.292 0.905 L 342.833 1.006 342.833 13.753 L 342.833 26.500 344.167 26.500 L 345.500 26.500 345.500 13.583 L 345.500 0.667 344.792 0.680 C 344.402 0.687,344.008 0.718,343.917 0.749 M99.500 1.433 C 98.175 1.787,96.733 2.505,95.550 3.401 C 89.985 7.612,89.385 18.480,94.426 23.749 C 97.904 27.384,104.124 28.044,108.631 25.257 L 109.750 24.565 109.715 23.574 C 109.645 21.603,109.580 21.554,108.247 22.488 C 101.478 27.230,93.983 22.825,93.949 14.083 C 93.913 5.088,101.239 0.849,108.381 5.733 C 109.103 6.227,109.072 6.268,109.330 4.514 C 109.537 3.106,109.603 3.223,108.154 2.432 C 105.956 1.234,101.972 0.773,99.500 1.433 M220.594 2.375 C 220.475 3.452,218.667 25.820,218.667 26.215 C 218.667 26.460,218.854 26.500,220.000 26.500 C 221.011 26.500,221.333 26.445,221.333 26.274 C 221.333 25.875,222.841 6.589,222.883 6.448 C 222.940 6.257,225.406 12.291,229.356 22.289 L 231.083 26.661 232.250 26.660 L 233.417 26.660 235.500 21.487 C 236.646 18.642,237.650 16.112,237.732 15.865 C 237.940 15.236,239.831 10.464,240.789 8.148 L 241.590 6.212 242.312 15.648 C 242.708 20.837,243.073 25.402,243.123 25.792 L 243.212 26.500 244.523 26.500 L 245.833 26.500 245.841 26.042 C 245.845 25.790,245.414 20.162,244.884 13.536 L 243.919 1.489 242.257 1.536 L 240.595 1.583 240.072 2.833 C 239.785 3.521,239.306 4.758,239.007 5.583 C 238.709 6.408,238.275 7.608,238.043 8.250 C 237.811 8.892,237.473 9.749,237.293 10.154 C 237.112 10.560,236.253 12.698,235.383 14.904 C 234.513 17.111,233.634 19.292,233.430 19.750 C 233.225 20.208,232.884 21.020,232.672 21.553 L 232.286 22.522 231.639 20.969 C 231.283 20.115,230.237 17.504,229.314 15.167 C 228.391 12.829,227.493 10.602,227.318 10.217 C 227.143 9.833,227.000 9.420,227.000 9.300 C 227.000 9.128,225.622 5.528,224.158 1.875 C 224.017 1.521,223.914 1.500,222.349 1.500 L 220.691 1.500 220.594 2.375 M132.565 1.997 C 130.831 2.697,131.379 5.667,133.242 5.667 C 134.527 5.667,135.167 5.029,135.167 3.750 C 135.167 2.237,133.968 1.430,132.565 1.997 M350.892 2.154 C 349.782 2.831,349.777 4.666,350.884 5.341 C 351.736 5.860,352.593 5.773,353.267 5.100 C 354.908 3.458,352.880 0.942,350.892 2.154 M269.083 3.197 C 267.313 3.494,267.500 3.114,267.500 6.420 L 267.500 9.333 266.167 9.333 L 264.833 9.333 264.833 10.500 L 264.833 11.667 266.156 11.667 L 267.478 11.667 267.531 17.875 C 267.582 23.906,267.594 24.103,267.951 24.771 C 268.726 26.220,269.803 26.734,272.083 26.744 C 274.432 26.754,274.562 26.687,274.420 25.549 C 274.249 24.185,274.325 24.242,272.668 24.246 C 271.258 24.250,271.151 24.225,270.713 23.788 L 270.250 23.326 270.197 17.496 L 270.144 11.667 272.238 11.667 C 274.586 11.667,274.443 11.770,274.144 10.278 L 273.954 9.333 272.060 9.333 L 270.167 9.333 270.167 6.260 C 270.167 2.837,270.226 3.005,269.083 3.197 M360.583 3.187 C 358.808 3.506,359.000 3.114,359.000 6.420 L 359.000 9.333 357.750 9.333 L 356.500 9.333 356.500 10.500 L 356.500 11.667 357.750 11.667 L 359.000 11.667 359.001 17.625 C 359.002 23.787,359.056 24.376,359.710 25.338 C 360.441 26.413,362.313 26.968,364.515 26.762 C 366.237 26.600,366.226 26.611,365.981 25.281 L 365.777 24.176 364.597 24.275 C 361.746 24.514,361.667 24.323,361.667 17.172 L 361.667 11.667 363.773 11.667 L 365.880 11.667 365.775 10.792 C 365.717 10.310,365.669 9.785,365.668 9.625 C 365.667 9.364,365.460 9.333,363.667 9.333 L 361.667 9.333 361.667 6.167 C 361.667 4.425,361.610 3.008,361.542 3.019 C 361.473 3.029,361.042 3.105,360.583 3.187 M144.961 9.172 C 137.053 10.504,136.542 24.563,144.327 26.596 C 146.236 27.094,148.899 26.840,150.583 25.999 C 152.331 25.125,152.367 25.071,152.149 23.609 L 151.963 22.356 150.988 23.022 C 145.872 26.514,140.621 23.041,141.466 16.724 C 142.165 11.495,146.806 9.665,151.087 12.931 C 151.796 13.472,151.737 13.532,151.981 12.011 C 152.220 10.525,152.157 10.431,150.496 9.779 C 148.698 9.074,146.787 8.865,144.961 9.172 M161.083 9.114 C 160.097 9.239,158.902 9.520,157.526 9.949 L 156.126 10.385 156.238 11.484 C 156.388 12.942,156.429 12.963,157.923 12.341 C 162.471 10.448,165.667 11.314,165.667 14.441 C 165.667 15.430,165.695 15.410,164.016 15.591 C 158.104 16.226,154.927 18.464,154.920 22.000 C 154.910 26.719,160.105 28.464,164.810 25.322 C 166.032 24.507,165.954 24.491,166.091 25.583 L 166.205 26.500 167.269 26.500 L 168.333 26.500 168.333 19.672 C 168.333 12.381,168.291 11.952,167.465 10.786 C 166.596 9.560,163.647 8.787,161.083 9.114 M196.536 9.177 C 192.089 10.054,189.610 14.872,190.755 20.415 C 192.477 28.752,203.513 29.257,205.540 21.092 C 207.383 13.671,203.021 7.899,196.536 9.177 M254.347 9.181 C 249.845 10.064,247.566 15.307,249.061 21.343 C 250.444 26.930,257.596 28.811,262.354 24.840 L 262.892 24.390 262.705 23.259 C 262.496 22.002,262.420 21.856,262.091 22.089 C 258.147 24.889,255.223 25.220,253.027 23.116 C 252.125 22.252,251.167 19.985,251.167 18.715 L 251.167 18.333 257.000 18.333 L 262.833 18.333 262.833 17.027 C 262.833 14.181,261.454 10.959,259.869 10.101 C 257.937 9.056,256.341 8.790,254.347 9.181 M285.226 9.173 C 283.828 9.450,282.443 10.301,281.366 11.545 L 280.691 12.325 280.605 11.871 C 280.557 11.621,280.471 11.079,280.413 10.667 C 280.224 9.309,280.247 9.333,279.155 9.333 L 278.167 9.333 278.167 17.917 L 278.167 26.500 279.500 26.500 L 280.833 26.500 280.833 21.150 C 280.833 14.976,280.774 15.257,282.415 13.681 C 283.554 12.587,285.089 11.749,286.280 11.570 C 287.097 11.448,287.137 11.321,286.820 9.842 C 286.621 8.916,286.590 8.903,285.226 9.173 M293.395 9.173 C 288.738 10.095,286.123 15.321,287.559 20.833 C 289.625 28.757,300.077 29.000,302.398 21.178 C 303.170 18.578,302.614 14.150,301.261 12.111 C 299.737 9.815,296.416 8.575,293.395 9.173 M312.250 9.171 C 311.307 9.360,309.569 10.217,308.909 10.818 C 308.267 11.402,308.246 11.386,308.087 10.208 L 307.969 9.333 306.901 9.333 L 305.833 9.333 305.833 21.174 L 305.833 33.015 306.375 32.918 C 306.673 32.865,307.254 32.766,307.667 32.698 L 308.417 32.574 308.462 29.318 L 308.507 26.062 309.628 26.355 C 316.000 28.017,320.489 24.323,320.498 17.410 C 320.505 11.530,317.155 8.184,312.250 9.171 M329.351 9.180 C 324.956 10.044,322.345 15.301,323.648 20.667 C 325.742 29.294,336.945 28.920,338.606 20.167 C 339.929 13.193,335.527 7.967,329.351 9.180 M374.417 9.101 C 372.718 9.350,369.579 10.319,369.589 10.591 C 369.636 11.824,369.897 12.854,370.143 12.774 C 370.294 12.726,371.191 12.413,372.138 12.079 C 376.455 10.556,379.004 11.330,379.059 14.180 L 379.083 15.400 377.500 15.613 C 370.841 16.506,368.058 18.633,368.375 22.584 C 368.723 26.928,374.859 28.429,378.613 25.089 C 379.331 24.449,379.424 24.508,379.588 25.700 L 379.698 26.500 380.766 26.500 L 381.833 26.500 381.833 19.780 C 381.833 12.008,381.795 11.728,380.582 10.560 C 379.367 9.390,376.719 8.764,374.417 9.101 M393.351 9.169 C 392.326 9.386,390.567 10.239,389.730 10.925 C 388.938 11.573,388.946 11.580,388.741 10.125 L 388.629 9.333 387.564 9.333 L 386.500 9.333 386.500 17.917 L 386.500 26.500 387.833 26.500 L 389.167 26.500 389.175 20.292 L 389.183 14.083 390.092 13.333 C 392.888 11.026,395.552 10.747,396.841 12.628 L 397.250 13.225 397.299 19.863 L 397.348 26.500 398.681 26.500 L 400.013 26.500 399.965 19.292 C 399.911 11.218,399.929 11.340,398.632 10.245 C 397.443 9.240,395.191 8.781,393.351 9.169 M178.000 9.409 C 173.451 10.577,171.026 15.655,172.422 21.090 C 173.809 26.491,179.775 28.416,183.603 24.698 L 184.214 24.104 184.120 25.761 C 183.870 30.157,180.876 31.558,175.630 29.734 C 173.368 28.947,173.434 28.923,173.241 30.627 L 173.130 31.610 174.440 32.042 C 178.114 33.251,182.296 33.049,184.235 31.569 C 186.596 29.766,186.667 29.398,186.667 18.848 L 186.667 10.231 184.875 9.760 C 182.693 9.186,179.502 9.023,178.000 9.409 M132.000 17.917 L 132.000 26.500 133.333 26.500 L 134.667 26.500 134.667 17.917 L 134.667 9.333 133.333 9.333 L 132.000 9.333 132.000 17.917 M350.667 17.917 L 350.667 26.500 352.000 26.500 L 353.333 26.500 353.333 17.917 L 353.333 9.333 352.000 9.333 L 350.667 9.333 350.667 17.917 M200.047 11.711 C 204.527 13.592,204.241 22.876,199.661 24.236 C 197.829 24.780,195.138 24.039,194.718 22.875 C 194.660 22.715,194.481 22.393,194.320 22.160 C 193.049 20.321,192.973 16.174,194.167 13.833 C 195.350 11.513,197.623 10.693,200.047 11.711 M257.180 11.357 C 258.528 11.761,259.829 13.514,260.101 15.292 L 260.209 16.000 255.768 16.000 L 251.327 16.000 251.437 15.542 C 252.221 12.271,254.555 10.571,257.180 11.357 M296.956 11.777 C 301.045 13.708,301.047 21.935,296.959 24.021 C 293.497 25.787,289.992 22.715,290.002 17.923 C 290.013 12.897,293.257 10.030,296.956 11.777 M332.942 11.670 C 335.228 12.650,336.317 15.500,335.894 19.396 C 335.074 26.964,326.000 25.753,326.000 18.076 C 326.000 13.045,329.220 10.074,332.942 11.670 M182.944 11.735 C 183.417 11.860,183.885 12.012,183.985 12.074 C 184.109 12.151,184.167 13.611,184.167 16.651 L 184.167 21.116 183.208 22.028 C 178.830 26.195,173.876 23.125,174.796 16.814 C 175.434 12.435,178.459 10.549,182.944 11.735 M314.963 11.763 C 319.023 13.786,318.667 21.963,314.434 23.934 C 313.122 24.545,310.533 24.376,308.992 23.579 L 308.500 23.325 308.500 18.886 L 308.500 14.448 308.927 13.888 C 310.502 11.824,313.187 10.878,314.963 11.763 M165.667 19.829 L 165.667 21.992 164.792 22.688 C 161.413 25.375,157.667 24.907,157.667 21.799 C 157.667 19.686,161.035 17.849,165.208 17.685 L 165.667 17.667 165.667 19.829 M379.167 19.902 L 379.167 22.138 378.354 22.735 C 374.560 25.520,370.385 24.671,371.160 21.272 C 371.562 19.508,375.233 17.760,378.708 17.678 L 379.167 17.667 379.167 19.902 M215.413 34.498 C 212.654 34.904,211.812 36.218,211.701 40.292 L 211.628 43.000 210.397 43.000 L 209.167 43.000 209.167 44.167 L 209.167 45.333 210.417 45.333 L 211.667 45.333 211.667 52.750 L 211.667 60.167 213.000 60.167 L 214.333 60.167 214.333 52.750 L 214.333 45.333 216.190 45.333 L 218.046 45.333 217.941 44.458 C 217.884 43.977,217.836 43.452,217.835 43.292 C 217.833 43.032,217.638 43.000,216.067 43.000 L 214.301 43.000 214.363 40.708 C 214.452 37.396,214.841 36.886,217.225 36.955 C 218.327 36.987,218.363 36.976,218.276 36.619 C 218.226 36.416,218.135 35.865,218.074 35.394 C 217.933 34.316,217.543 34.185,215.413 34.498 M278.875 34.533 L 278.000 34.692 278.000 47.436 L 278.000 60.181 279.292 60.132 L 280.583 60.083 280.626 47.208 L 280.669 34.333 280.209 34.353 C 279.957 34.364,279.356 34.445,278.875 34.533 M99.682 35.542 C 99.603 35.748,99.260 36.629,98.920 37.500 C 98.579 38.371,98.151 39.533,97.967 40.083 C 97.589 41.217,91.413 56.817,90.659 58.543 C 89.930 60.211,89.917 60.188,91.594 60.131 L 93.021 60.083 94.563 56.167 L 96.105 52.250 101.318 52.250 L 106.532 52.250 107.434 54.500 C 107.931 55.737,108.448 56.986,108.585 57.275 C 108.722 57.564,108.833 57.899,108.833 58.019 C 108.833 58.139,109.002 58.671,109.207 59.202 L 109.582 60.167 110.978 60.167 L 112.375 60.167 112.273 59.657 C 112.217 59.377,111.920 58.571,111.614 57.865 C 111.307 57.160,110.411 54.896,109.622 52.833 C 107.589 47.519,104.870 40.506,103.726 37.627 L 102.750 35.170 101.288 35.168 C 99.924 35.167,99.815 35.192,99.682 35.542 M259.833 47.736 L 259.833 60.167 261.083 60.167 L 262.333 60.167 262.333 54.917 L 262.333 49.667 264.875 49.664 C 270.522 49.659,273.401 47.755,274.016 43.620 C 274.475 40.533,273.458 38.093,271.083 36.582 C 269.407 35.516,269.020 35.448,264.208 35.373 L 259.833 35.305 259.833 47.736 M338.987 36.154 C 337.810 37.331,338.630 39.167,340.333 39.167 C 341.523 39.167,342.167 38.552,342.167 37.417 C 342.167 36.281,341.523 35.667,340.333 35.667 C 339.606 35.667,339.400 35.741,338.987 36.154 M269.132 38.441 C 270.764 39.275,271.083 39.927,271.083 42.417 C 271.083 46.125,269.438 47.333,264.389 47.333 L 262.333 47.333 262.333 42.559 L 262.333 37.785 265.263 37.873 C 268.079 37.958,268.230 37.980,269.132 38.441 M104.658 47.417 C 104.854 47.809,105.500 49.478,105.500 49.590 C 105.500 49.632,103.627 49.667,101.337 49.667 L 97.175 49.667 97.282 49.125 C 97.341 48.827,97.851 47.421,98.414 46.000 C 98.978 44.579,99.841 42.349,100.332 41.044 L 101.225 38.672 102.859 42.878 C 103.757 45.191,104.567 47.233,104.658 47.417 M120.943 42.841 C 116.036 43.603,113.180 49.102,114.668 54.921 C 115.975 60.033,121.604 61.777,125.816 58.377 L 126.382 57.920 126.298 59.585 C 126.073 64.088,122.581 65.445,117.093 63.160 C 116.391 62.868,115.794 62.656,115.767 62.689 C 115.689 62.785,115.333 64.690,115.333 65.010 C 115.333 65.757,119.018 66.558,122.025 66.464 C 125.732 66.349,127.443 65.360,128.596 62.667 C 128.897 61.962,128.920 61.368,128.965 52.884 L 129.013 43.851 127.882 43.522 C 125.514 42.833,122.742 42.561,120.943 42.841 M137.750 42.891 C 133.655 44.245,131.470 48.998,132.566 54.167 C 133.845 60.204,140.455 62.424,145.933 58.656 L 146.708 58.122 146.595 57.019 C 146.444 55.543,146.367 55.508,145.140 56.376 C 140.337 59.771,135.746 58.015,135.114 52.542 L 135.032 51.833 140.954 51.833 L 146.876 51.833 146.757 50.311 C 146.479 46.755,145.004 44.234,142.555 43.130 C 141.557 42.680,138.803 42.543,137.750 42.891 M156.917 42.900 C 155.989 43.193,155.252 43.589,154.052 44.439 C 152.893 45.259,152.918 45.269,152.759 43.958 L 152.643 43.000 151.655 43.000 L 150.667 43.000 150.667 51.583 L 150.667 60.167 151.917 60.167 L 153.167 60.167 153.167 54.013 L 153.167 47.860 154.292 47.011 C 157.396 44.667,160.193 44.555,161.182 46.734 C 161.467 47.361,161.493 47.935,161.496 53.792 L 161.500 60.167 162.848 60.167 L 164.195 60.167 164.132 53.292 C 164.059 45.429,164.030 45.254,162.612 43.861 C 161.467 42.738,158.835 42.293,156.917 42.900 M173.092 43.019 C 169.027 44.417,166.874 49.282,168.066 54.376 C 169.301 59.655,174.878 62.010,180.002 59.416 C 181.465 58.675,181.525 58.577,181.308 57.292 C 181.084 55.967,181.127 55.981,179.881 56.840 C 175.157 60.101,170.020 56.751,170.565 50.766 C 171.060 45.324,175.584 43.327,179.966 46.617 C 180.734 47.193,180.916 47.043,181.148 45.644 C 181.382 44.227,181.404 44.262,179.750 43.501 C 177.762 42.585,174.945 42.382,173.092 43.019 M224.960 42.980 C 220.862 44.334,218.697 49.280,219.923 54.484 C 221.736 62.173,232.183 62.536,234.769 55.000 C 235.266 53.550,235.223 49.488,234.694 47.956 C 233.275 43.847,228.981 41.652,224.960 42.980 M245.583 42.900 C 244.427 43.266,243.784 43.683,242.573 44.856 L 241.396 45.995 241.184 44.498 L 240.972 43.000 239.903 43.000 L 238.833 43.000 238.833 51.583 L 238.833 60.167 240.167 60.167 L 241.500 60.167 241.500 54.866 L 241.500 49.565 241.971 48.822 C 242.945 47.286,244.998 45.859,246.915 45.387 L 248.031 45.111 247.925 44.597 C 247.868 44.315,247.775 43.765,247.721 43.375 C 247.608 42.572,247.028 42.443,245.583 42.900 M289.167 42.926 C 288.571 43.054,287.533 43.367,286.861 43.621 L 285.638 44.083 285.750 45.167 C 285.888 46.494,286.005 46.639,286.711 46.353 C 291.971 44.220,295.167 44.859,295.167 48.044 L 295.167 48.939 293.247 49.226 C 286.625 50.215,283.740 52.660,284.495 56.641 C 285.278 60.771,291.016 61.822,294.833 58.535 L 295.417 58.032 295.583 59.058 L 295.750 60.083 296.875 60.133 L 298.000 60.182 297.995 54.216 C 297.988 46.022,297.772 44.828,296.085 43.668 C 294.656 42.685,291.743 42.372,289.167 42.926 M308.908 42.893 C 307.919 43.214,306.264 44.130,305.544 44.756 L 304.917 45.301 304.749 44.192 L 304.581 43.083 303.540 43.034 L 302.500 42.984 302.500 51.575 L 302.500 60.167 303.833 60.167 L 305.167 60.167 305.167 53.923 C 305.167 47.726,305.169 47.677,305.521 47.489 C 305.716 47.385,306.215 47.040,306.631 46.722 C 309.593 44.461,312.609 44.716,313.323 47.287 C 313.431 47.674,313.498 50.282,313.499 54.042 L 313.500 60.167 314.750 60.167 L 316.000 60.167 316.000 53.447 C 316.000 46.004,315.956 45.617,314.954 44.318 C 313.855 42.891,310.993 42.217,308.908 42.893 M326.739 43.006 C 326.127 43.200,325.240 43.689,324.492 44.245 C 323.118 45.266,323.148 45.274,322.930 43.792 L 322.813 43.000 321.740 43.000 L 320.667 43.000 320.667 51.583 L 320.667 60.167 322.000 60.167 L 323.333 60.167 323.333 54.008 L 323.333 47.848 324.348 47.027 C 327.248 44.681,330.034 44.534,331.125 46.670 C 331.495 47.393,331.500 47.496,331.500 53.785 L 331.500 60.167 332.927 60.167 L 334.353 60.167 334.302 53.208 C 334.243 45.278,334.233 45.218,332.747 43.848 C 331.473 42.674,328.916 42.316,326.739 43.006 M352.759 43.009 C 351.792 43.351,349.652 44.619,349.427 44.984 C 349.200 45.350,349.035 45.150,348.926 44.375 C 348.728 42.974,348.752 43.000,347.655 43.000 L 346.667 43.000 346.667 51.583 L 346.667 60.167 347.917 60.167 L 349.167 60.167 349.167 54.011 L 349.167 47.856 350.484 46.928 C 353.625 44.714,355.701 44.544,357.068 46.387 C 357.406 46.843,357.418 47.059,357.464 53.512 L 357.511 60.167 358.839 60.167 L 360.167 60.167 360.167 53.592 C 360.167 46.404,360.104 45.768,359.277 44.553 C 358.106 42.832,355.206 42.145,352.759 43.009 M369.750 42.842 C 364.902 43.583,361.939 49.218,363.416 54.887 C 364.735 59.951,370.687 61.833,374.506 58.394 L 375.220 57.750 375.118 59.445 C 374.905 62.968,373.752 64.085,370.333 64.081 C 368.321 64.078,367.645 63.929,365.622 63.040 C 364.481 62.540,364.530 62.509,364.302 63.885 C 364.058 65.359,364.073 65.378,365.943 65.929 C 371.162 67.465,375.991 66.118,377.348 62.749 L 377.750 61.750 377.800 52.801 L 377.849 43.851 376.983 43.594 C 374.587 42.882,371.551 42.567,369.750 42.842 M184.208 43.044 C 183.365 43.247,183.361 43.283,184.000 44.944 C 184.275 45.658,184.500 46.312,184.500 46.396 C 184.500 46.580,186.302 51.331,188.286 56.378 L 189.712 60.006 189.166 61.418 C 188.282 63.705,187.412 64.341,185.480 64.112 L 184.657 64.015 184.769 64.882 C 184.977 66.496,184.981 66.500,186.454 66.498 C 188.532 66.496,189.903 65.657,190.845 63.811 C 191.277 62.964,194.038 55.746,194.662 53.833 C 195.146 52.349,196.023 49.994,197.548 46.083 C 198.909 42.594,198.949 42.978,197.230 43.035 L 195.766 43.083 195.532 43.917 C 195.199 45.105,191.238 56.461,191.101 56.617 C 191.085 56.635,190.520 55.135,189.846 53.283 C 189.171 51.432,188.341 49.204,188.002 48.333 C 187.663 47.462,187.065 45.869,186.674 44.792 C 185.877 42.595,185.927 42.630,184.208 43.044 M339.000 51.583 L 339.000 60.167 340.333 60.167 L 341.667 60.167 341.667 51.583 L 341.667 43.000 340.333 43.000 L 339.000 43.000 339.000 51.583 M141.480 45.323 C 142.523 45.855,143.484 47.205,143.742 48.500 C 143.806 48.821,143.895 49.215,143.940 49.375 C 144.017 49.647,143.733 49.667,139.612 49.667 L 135.202 49.667 135.355 48.987 C 136.054 45.877,139.051 44.084,141.480 45.323 M229.355 45.544 C 233.477 47.678,233.339 56.364,229.161 57.752 C 225.821 58.861,223.088 56.917,222.487 53.002 C 221.649 47.545,225.384 43.488,229.355 45.544 M125.542 45.586 L 126.333 45.865 126.333 50.382 L 126.333 54.900 125.375 55.832 C 121.102 59.984,116.308 56.824,117.175 50.428 C 117.759 46.111,121.264 44.083,125.542 45.586 M374.292 45.574 L 375.167 45.846 375.167 50.325 L 375.167 54.803 374.147 55.813 C 370.414 59.512,366.253 57.719,365.889 52.254 C 365.529 46.842,369.141 43.971,374.292 45.574 M294.989 55.930 C 293.151 58.144,288.399 58.715,287.459 56.833 C 286.221 54.357,288.734 52.149,293.589 51.447 L 295.083 51.231 295.130 53.468 C 295.160 54.941,295.113 55.781,294.989 55.930 " stroke="none" fill="#040404" fill-rule="evenodd"></path><path id="path3" d="M41.750 40.167 C 42.294 40.717,42.777 41.167,42.823 41.167 C 42.869 41.167,42.461 40.717,41.917 40.167 C 41.372 39.617,40.890 39.167,40.844 39.167 C 40.798 39.167,41.206 39.617,41.750 40.167 " stroke="none" fill="#708c38" fill-rule="evenodd"></path><path id="path4" d="" stroke="none" fill="#3c3038" fill-rule="evenodd"></path><path id="path5" d="" stroke="none" fill="#04303c" fill-rule="evenodd"></path><path id="path6" d="" stroke="none" fill="#043404" fill-rule="evenodd"></path><path id="path7" d="" stroke="none" fill="#080404" fill-rule="evenodd"></path>
    <path id="path8" d="" stroke="none" fill="#080404" fill-rule="evenodd"></path>
  </g>
</svg>